<svg width="19" height="25" viewBox="0 0 19 25" fill="none" xmlns="http://www.w3.org/2000/svg">
<path d="M16.9502 11.2853C17.0127 11.3478 17.0439 11.4103 17.0439 11.4728C17.0439 11.5353 17.0231 11.5874 16.9814 11.629L16.6689 12.0353C16.6273 12.0978 16.5648 12.129 16.4814 12.129C16.4189 12.129 16.3669 12.1082 16.3252 12.0665L15.0439 11.0353V18.629C15.0439 18.754 14.9971 18.8686 14.9033 18.9728C14.8096 19.0769 14.6898 19.129 14.5439 19.129H10.5439C10.3981 19.129 10.2783 19.0822 10.1846 18.9884C10.0908 18.8947 10.0439 18.7749 10.0439 18.629V14.629H8.04395V18.629C8.04395 18.754 7.99707 18.8686 7.90332 18.9728C7.80957 19.0769 7.68978 19.129 7.54395 19.129H3.54395C3.39811 19.129 3.27832 19.0769 3.18457 18.9728C3.09082 18.8686 3.04395 18.754 3.04395 18.629V11.0353L1.7627 12.0665C1.72103 12.1082 1.66895 12.129 1.60645 12.129C1.52311 12.129 1.46061 12.0978 1.41895 12.0353L1.10645 11.629C1.06478 11.5874 1.04395 11.5353 1.04395 11.4728C1.04395 11.4103 1.0752 11.3478 1.1377 11.2853L8.41895 5.34778C8.60645 5.20194 8.81478 5.12903 9.04395 5.12903C9.27311 5.12903 9.48145 5.20194 9.66895 5.34778L14.0439 8.91028V7.31653C14.0439 7.19153 14.1064 7.12903 14.2314 7.12903H14.8564C14.9814 7.12903 15.0439 7.19153 15.0439 7.31653V9.72278L16.9502 11.2853ZM14.0439 18.129V10.2228L9.04395 6.12903L4.04395 10.2228V18.129H7.04395V14.129C7.04395 13.9832 7.09082 13.8634 7.18457 13.7697C7.27832 13.6759 7.39811 13.629 7.54395 13.629H10.5439C10.6064 13.629 10.6689 13.6394 10.7314 13.6603C10.7939 13.6811 10.846 13.7176 10.8877 13.7697C10.9294 13.8217 10.9658 13.879 10.9971 13.9415C11.0283 14.004 11.0439 14.0665 11.0439 14.129V18.129H14.0439Z" fill="#EA222D"/>
</svg>
