<svg width="24" height="24" viewBox="0 0 24 24" fill="none" xmlns="http://www.w3.org/2000/svg">
<path d="M23.9631 21.3437C23.8716 20.6969 21.5636 5.80748 21.3145 3.96904C21.19 3.04227 20.394 2.33338 19.4424 2.33338H17.1692V1.25038C17.1692 0.745633 16.7586 0.334961 16.2538 0.334961H16.066C15.5612 0.334961 15.1506 0.745633 15.1506 1.25038V2.33334H11.348V1.25038C11.348 0.745633 10.9373 0.334961 10.4326 0.334961H10.2448C9.74002 0.334961 9.32939 0.745633 9.32939 1.25038V2.33334H5.5268V1.25038C5.5268 0.745633 5.11613 0.334961 4.61137 0.334961H4.42359C3.9188 0.334961 3.50817 0.745633 3.50817 1.25038V2.33334H1.88963C0.847687 2.33334 0 3.18102 0 4.22291C0 4.75944 0 21.5094 0 21.7756C0 22.8176 0.847687 23.6653 1.88963 23.6653C2.20228 23.6653 21.7691 23.6653 22.1356 23.6653C22.9231 23.6653 23.6355 23.1691 23.9075 22.4332C23.9445 22.3353 24.0578 21.9678 23.9631 21.3437ZM15.8548 1.25038C15.8548 1.1339 15.9495 1.03912 16.0661 1.03912H16.2539C16.3703 1.03912 16.4651 1.1339 16.4651 1.25038V4.38009C16.4651 4.49657 16.3703 4.59135 16.2539 4.59135H16.0661C15.9495 4.59135 15.8548 4.49657 15.8548 4.38009V1.25038ZM15.3629 4.96551C15.3791 4.98496 15.3963 5.00348 15.414 5.02148C15.4169 5.02443 15.4198 5.02743 15.4227 5.03033C15.4408 5.04824 15.4596 5.06526 15.4791 5.08157C15.4827 5.08457 15.4862 5.08748 15.4898 5.09043C15.5096 5.10655 15.53 5.12188 15.5512 5.13627C15.5544 5.13848 15.5577 5.14059 15.561 5.14274C15.5832 5.15741 15.6058 5.17148 15.6293 5.18423C15.6305 5.18488 15.6317 5.18544 15.633 5.18615C15.6563 5.19871 15.6803 5.21024 15.7048 5.22079C15.7074 5.22191 15.7099 5.22313 15.7125 5.22426C15.7368 5.23443 15.7617 5.24343 15.7869 5.25154C15.7912 5.2529 15.7953 5.2543 15.7996 5.25557C15.8245 5.26316 15.8498 5.26963 15.8756 5.27516C15.8801 5.27615 15.8847 5.27704 15.8893 5.27793C15.9155 5.28309 15.942 5.28726 15.969 5.29012C15.9725 5.29049 15.9761 5.29068 15.9796 5.29105C16.0081 5.29373 16.0369 5.29541 16.066 5.29541H16.2538C16.283 5.29541 16.3117 5.29373 16.3402 5.29105C16.3438 5.29073 16.3474 5.29054 16.3509 5.29012C16.3778 5.28726 16.4044 5.28309 16.4306 5.27793C16.4352 5.27704 16.4397 5.27615 16.4443 5.27516C16.47 5.26968 16.4954 5.26321 16.5203 5.25557C16.5245 5.25426 16.5287 5.25285 16.5329 5.25154C16.5582 5.24343 16.5831 5.23443 16.6073 5.22426C16.6099 5.22313 16.6125 5.22191 16.6151 5.22079C16.6396 5.21024 16.6636 5.19871 16.6869 5.18615C16.6881 5.18549 16.6894 5.18493 16.6906 5.18423C16.7141 5.17148 16.7367 5.15741 16.7588 5.14274C16.7621 5.14059 16.7655 5.13848 16.7687 5.13627C16.7898 5.12188 16.8102 5.10651 16.83 5.09043C16.8336 5.08748 16.8372 5.08457 16.8407 5.08157C16.8602 5.06521 16.879 5.04824 16.8971 5.03033C16.9001 5.02743 16.9029 5.02443 16.9058 5.02148C16.9235 5.00348 16.9407 4.98496 16.9569 4.96551C16.9575 4.97821 16.9578 4.99091 16.9578 5.00366C16.9578 5.44373 16.5998 5.80171 16.1597 5.80171C15.7197 5.80171 15.3617 5.44373 15.3617 5.00366C15.3619 4.99091 15.3622 4.97821 15.3629 4.96551ZM10.0336 1.25038C10.0336 1.1339 10.1284 1.03912 10.2449 1.03912H10.4327C10.5492 1.03912 10.644 1.1339 10.644 1.25038V4.38009C10.644 4.49657 10.5492 4.59135 10.4327 4.59135H10.2449C10.1284 4.59135 10.0336 4.49657 10.0336 4.38009V1.25038ZM9.54159 4.96551C9.55781 4.98496 9.57502 5.00348 9.59273 5.02148C9.59564 5.02443 9.5985 5.02743 9.60145 5.03033C9.6195 5.04824 9.63834 5.06526 9.65784 5.08157C9.66141 5.08457 9.66497 5.08748 9.66858 5.09043C9.68836 5.10655 9.70875 5.12188 9.72989 5.13627C9.73312 5.13848 9.73645 5.14059 9.73973 5.14274C9.76191 5.15741 9.78455 5.17148 9.80798 5.18423C9.8092 5.18488 9.81047 5.18544 9.81169 5.18615C9.83503 5.19871 9.85903 5.21024 9.8835 5.22079C9.88613 5.22191 9.88866 5.22313 9.89128 5.22426C9.91556 5.23443 9.94045 5.24343 9.96567 5.25154C9.96989 5.2529 9.97406 5.2543 9.97833 5.25557C10.0032 5.26316 10.0286 5.26963 10.0543 5.27516C10.0589 5.27615 10.0634 5.27704 10.068 5.27793C10.0942 5.28309 10.1207 5.28726 10.1477 5.29012C10.1512 5.29049 10.1548 5.29068 10.1584 5.29105C10.1869 5.29373 10.2157 5.29541 10.2448 5.29541H10.4326C10.4618 5.29541 10.4905 5.29373 10.519 5.29105C10.5225 5.29073 10.5262 5.29054 10.5297 5.29012C10.5567 5.28726 10.5832 5.28309 10.6094 5.27793C10.614 5.27704 10.6185 5.27615 10.6231 5.27516C10.6489 5.26968 10.6742 5.26321 10.6991 5.25557C10.7033 5.25426 10.7075 5.25285 10.7117 5.25154C10.737 5.24343 10.7619 5.23443 10.7861 5.22426C10.7888 5.22313 10.7913 5.22191 10.7939 5.22079C10.8184 5.21024 10.8424 5.19871 10.8657 5.18615C10.8669 5.18549 10.8682 5.18493 10.8694 5.18423C10.8929 5.17148 10.9155 5.15741 10.9377 5.14274C10.941 5.14059 10.9443 5.13848 10.9475 5.13627C10.9687 5.12188 10.989 5.10651 11.0088 5.09043C11.0124 5.08748 11.016 5.08457 11.0196 5.08157C11.0391 5.06521 11.0579 5.04824 11.076 5.03033C11.0789 5.02743 11.0818 5.02443 11.0847 5.02148C11.1023 5.00348 11.1195 4.98496 11.1357 4.96551C11.1363 4.97821 11.1366 4.99091 11.1366 5.00366C11.1366 5.44373 10.7786 5.80171 10.3385 5.80171C9.89841 5.80171 9.54042 5.44373 9.54042 5.00366C9.5407 4.99091 9.54098 4.97821 9.54159 4.96551ZM4.21237 1.25038C4.21237 1.1339 4.30716 1.03912 4.42364 1.03912H4.61142C4.72791 1.03912 4.82269 1.1339 4.82269 1.25038C4.82269 1.83866 4.82269 3.77671 4.82269 4.38009C4.82269 4.49657 4.72791 4.59135 4.61142 4.59135H4.42359C4.30711 4.59135 4.21233 4.49657 4.21233 4.38009C4.21238 4.0971 4.21237 1.55207 4.21237 1.25038ZM3.98677 5.18432C3.98798 5.18498 3.98925 5.18554 3.99047 5.18624C4.01381 5.1988 4.03781 5.21034 4.06228 5.22088C4.06491 5.22201 4.06744 5.22323 4.07006 5.22435C4.09434 5.23452 4.11923 5.24352 4.14445 5.25163C4.14867 5.25299 4.15284 5.2544 4.15706 5.25566C4.18195 5.26326 4.20731 5.26973 4.23305 5.27526C4.23759 5.27624 4.24214 5.27713 4.24673 5.27802C4.27294 5.28318 4.29947 5.28735 4.32642 5.29021C4.32998 5.29059 4.33355 5.29077 4.33716 5.29115C4.36561 5.29382 4.39439 5.29551 4.42355 5.29551H4.61133C4.64048 5.29551 4.66922 5.29382 4.69772 5.29115C4.70128 5.29082 4.70489 5.29063 4.70845 5.29021C4.73541 5.28735 4.76194 5.28318 4.78814 5.27802C4.79273 5.27713 4.79728 5.27624 4.80183 5.27526C4.82761 5.26977 4.85297 5.2633 4.87781 5.25566C4.88203 5.25435 4.88625 5.25294 4.89047 5.25163C4.91573 5.24352 4.94063 5.23452 4.96486 5.22435C4.96748 5.22323 4.97002 5.22201 4.97264 5.22088C4.99716 5.21034 5.02116 5.1988 5.04445 5.18624C5.04567 5.18559 5.04694 5.18502 5.04816 5.18432C5.07159 5.17157 5.09428 5.15751 5.11641 5.14284C5.11969 5.14068 5.12302 5.13857 5.12625 5.13637C5.14739 5.12198 5.16773 5.1066 5.18756 5.09052C5.19117 5.08757 5.19473 5.08466 5.1983 5.08166C5.2178 5.0653 5.23659 5.04834 5.25469 5.03043C5.25764 5.02752 5.2605 5.02452 5.26341 5.02157C5.28103 5.00352 5.29823 4.98501 5.31445 4.96555C5.31506 4.97826 5.31539 4.99096 5.31539 5.00371C5.31539 5.44377 4.95741 5.80176 4.5173 5.80176C4.06139 5.80176 3.69802 5.41879 3.72019 4.96551C3.79214 5.05157 3.88547 5.12905 3.98677 5.18432ZM0.704203 4.22291C0.704203 3.56929 1.236 3.03749 1.88967 3.03749H3.50827V3.89174C2.49464 4.81279 3.14845 6.50591 4.51758 6.50591C5.34591 6.50591 6.01983 5.83199 6.01983 5.00366C6.01983 4.57785 5.83833 4.17468 5.52689 3.89169V3.03754H9.32948V3.89179C9.01805 4.17477 8.83655 4.5779 8.83655 5.00371C8.83655 5.83209 9.51047 6.50596 10.3388 6.50596C11.1671 6.50596 11.841 5.83204 11.841 5.00371C11.841 4.5779 11.6595 4.17473 11.3481 3.89174V3.03754H15.1507V3.89179C14.8393 4.17477 14.6578 4.5779 14.6578 5.00371C14.6578 5.83209 15.3317 6.50596 16.16 6.50596C16.9884 6.50596 17.6623 5.83204 17.6623 5.00371C17.6623 4.5779 17.4808 4.17473 17.1693 3.89174V3.03754H19.4425C20.0962 3.03754 20.628 3.56934 20.628 4.22296V7.82043H0.704203V4.22291ZM23.2479 22.1866C23.0767 22.6499 22.6297 22.9611 22.1356 22.9611H20.9124C21.1746 22.6367 21.332 22.2243 21.332 21.7757V17.1124C21.332 16.918 21.1744 16.7603 20.9799 16.7603C20.7855 16.7603 20.6279 16.918 20.6279 17.1124V21.7757C20.6279 22.4293 20.096 22.9611 19.4423 22.9611H1.88963C1.23595 22.9611 0.704156 22.4293 0.704156 21.7757V9.8391H9.51956C9.714 9.8391 9.87164 9.68146 9.87164 9.48702C9.87164 9.29258 9.714 9.13494 9.51956 9.13494H0.704203V8.52463H20.628V9.13494H11.1579C10.9635 9.13494 10.8059 9.29258 10.8059 9.48702C10.8059 9.68146 10.9635 9.8391 11.1579 9.8391H20.628V15.4693C20.628 15.6638 20.7856 15.8214 20.98 15.8214C21.1745 15.8214 21.3321 15.6638 21.3321 15.4693C21.3321 15.1937 21.3321 9.11563 21.3321 8.83926L23.2655 21.4398C23.2657 21.4416 23.266 21.4433 23.2663 21.4451C23.3407 21.9307 23.2498 22.1817 23.2479 22.1866Z" fill="#338DCC"/>
<path d="M8.02297 11.6445H6.8638C6.66936 11.6445 6.51172 11.8022 6.51172 11.9966C6.51172 12.191 6.66936 12.3487 6.8638 12.3487H8.02297C8.21745 12.3487 8.37505 12.191 8.37505 11.9966C8.37509 11.8022 8.21745 11.6445 8.02297 11.6445Z" fill="#338DCC"/>
<path d="M11.2458 11.6445H10.0865C9.89202 11.6445 9.73438 11.8022 9.73438 11.9966C9.73438 12.191 9.89202 12.3487 10.0865 12.3487H11.2458C11.4403 12.3487 11.5978 12.191 11.5978 11.9966C11.5979 11.8022 11.4403 11.6445 11.2458 11.6445Z" fill="#338DCC"/>
<path d="M14.4685 11.6445H13.3091C13.1147 11.6445 12.957 11.8022 12.957 11.9966C12.957 12.191 13.1147 12.3487 13.3091 12.3487H14.4685C14.6629 12.3487 14.8205 12.191 14.8205 11.9966C14.8206 11.8022 14.6629 11.6445 14.4685 11.6445Z" fill="#338DCC"/>
<path d="M17.6911 11.6445H16.5318C16.3373 11.6445 16.1797 11.8022 16.1797 11.9966C16.1797 12.191 16.3373 12.3487 16.5318 12.3487H17.6911C17.8856 12.3487 18.0432 12.191 18.0432 11.9966C18.0432 11.8022 17.8856 11.6445 17.6911 11.6445Z" fill="#338DCC"/>
<path d="M4.80045 14.4805H3.64114C3.4467 14.4805 3.28906 14.6381 3.28906 14.8325C3.28906 15.027 3.4467 15.1846 3.64114 15.1846H4.80045C4.99494 15.1846 5.15253 15.027 5.15253 14.8325C5.15258 14.6381 4.99498 14.4805 4.80045 14.4805Z" fill="#338DCC"/>
<path d="M8.02297 14.4805H6.8638C6.66936 14.4805 6.51172 14.6381 6.51172 14.8325C6.51172 15.027 6.66936 15.1846 6.8638 15.1846H8.02297C8.21745 15.1846 8.37505 15.027 8.37505 14.8325C8.37509 14.6381 8.21745 14.4805 8.02297 14.4805Z" fill="#338DCC"/>
<path d="M11.2458 14.4805H10.0865C9.89202 14.4805 9.73438 14.6381 9.73438 14.8325C9.73438 15.027 9.89202 15.1846 10.0865 15.1846H11.2458C11.4403 15.1846 11.5978 15.027 11.5978 14.8325C11.5979 14.6381 11.4403 14.4805 11.2458 14.4805Z" fill="#338DCC"/>
<path d="M14.4685 14.4805H13.3091C13.1147 14.4805 12.957 14.6381 12.957 14.8325C12.957 15.027 13.1147 15.1846 13.3091 15.1846H14.4685C14.6629 15.1846 14.8205 15.027 14.8205 14.8325C14.8206 14.6381 14.6629 14.4805 14.4685 14.4805Z" fill="#338DCC"/>
<path d="M17.6911 14.4805H16.5318C16.3373 14.4805 16.1797 14.6381 16.1797 14.8325C16.1797 15.027 16.3373 15.1846 16.5318 15.1846H17.6911C17.8856 15.1846 18.0432 15.027 18.0432 14.8325C18.0432 14.6381 17.8856 14.4805 17.6911 14.4805Z" fill="#338DCC"/>
<path d="M4.80045 17.3174H3.64114C3.4467 17.3174 3.28906 17.475 3.28906 17.6695C3.28906 17.8639 3.4467 18.0215 3.64114 18.0215H4.80045C4.99494 18.0215 5.15253 17.8639 5.15253 17.6695C5.15258 17.475 4.99498 17.3174 4.80045 17.3174Z" fill="#338DCC"/>
<path d="M8.02297 17.3174H6.8638C6.66936 17.3174 6.51172 17.475 6.51172 17.6695C6.51172 17.8639 6.66936 18.0215 6.8638 18.0215H8.02297C8.21745 18.0215 8.37505 17.8639 8.37505 17.6695C8.37509 17.475 8.21745 17.3174 8.02297 17.3174Z" fill="#338DCC"/>
<path d="M11.2458 17.3174H10.0865C9.89202 17.3174 9.73438 17.475 9.73438 17.6695C9.73438 17.8639 9.89202 18.0215 10.0865 18.0215H11.2458C11.4403 18.0215 11.5978 17.8639 11.5978 17.6695C11.5979 17.475 11.4403 17.3174 11.2458 17.3174Z" fill="#338DCC"/>
<path d="M14.4685 17.3174H13.3091C13.1147 17.3174 12.957 17.475 12.957 17.6695C12.957 17.8639 13.1147 18.0215 13.3091 18.0215H14.4685C14.6629 18.0215 14.8205 17.8639 14.8205 17.6695C14.8206 17.475 14.6629 17.3174 14.4685 17.3174Z" fill="#338DCC"/>
<path d="M17.6911 17.3174H16.5318C16.3373 17.3174 16.1797 17.475 16.1797 17.6695C16.1797 17.8639 16.3373 18.0215 16.5318 18.0215H17.6911C17.8856 18.0215 18.0432 17.8639 18.0432 17.6695C18.0432 17.475 17.8856 17.3174 17.6911 17.3174Z" fill="#338DCC"/>
<path d="M4.80045 20.1543H3.64114C3.4467 20.1543 3.28906 20.3119 3.28906 20.5064C3.28906 20.7008 3.4467 20.8585 3.64114 20.8585H4.80045C4.99494 20.8585 5.15253 20.7008 5.15253 20.5064C5.15258 20.3119 4.99498 20.1543 4.80045 20.1543Z" fill="#338DCC"/>
<path d="M8.02297 20.1543H6.8638C6.66936 20.1543 6.51172 20.3119 6.51172 20.5064C6.51172 20.7008 6.66936 20.8585 6.8638 20.8585H8.02297C8.21745 20.8585 8.37505 20.7008 8.37505 20.5064C8.37509 20.3119 8.21745 20.1543 8.02297 20.1543Z" fill="#338DCC"/>
<path d="M11.2458 20.1543H10.0865C9.89202 20.1543 9.73438 20.3119 9.73438 20.5064C9.73438 20.7008 9.89202 20.8585 10.0865 20.8585H11.2458C11.4403 20.8585 11.5978 20.7008 11.5978 20.5064C11.5979 20.3119 11.4403 20.1543 11.2458 20.1543Z" fill="#338DCC"/>
<path d="M14.4685 20.1543H13.3091C13.1147 20.1543 12.957 20.3119 12.957 20.5064C12.957 20.7008 13.1147 20.8585 13.3091 20.8585H14.4685C14.6629 20.8585 14.8205 20.7008 14.8205 20.5064C14.8206 20.3119 14.6629 20.1543 14.4685 20.1543Z" fill="#338DCC"/>
</svg>
