<svg width="24" height="24" viewBox="0 0 24 24" fill="none" xmlns="http://www.w3.org/2000/svg">
<g clip-path="url(#clip0_1635_1269)">
<path d="M11.9985 0C7.10987 0 3.13281 3.97705 3.13281 8.86571C3.13281 10.4751 3.85459 12.206 3.88483 12.279C4.11795 12.8323 4.57792 13.6918 4.90961 14.1956L10.9884 23.406C11.2371 23.7836 11.6053 24 11.9985 24C12.3917 24 12.7599 23.7836 13.0087 23.4065L19.088 14.1956C19.4202 13.6918 19.8796 12.8323 20.1127 12.279C20.143 12.2065 20.8642 10.4756 20.8642 8.86571C20.8642 3.97705 16.8872 0 11.9985 0ZM19.1511 11.8743C18.943 12.3703 18.5148 13.1697 18.217 13.6214L12.1378 22.8323C12.0178 23.0143 11.9798 23.0143 11.8598 22.8323L5.78053 13.6214C5.48275 13.1697 5.05459 12.3697 4.8465 11.8738C4.83764 11.8524 4.17584 10.2592 4.17584 8.86571C4.17584 4.55228 7.6851 1.04302 11.9985 1.04302C16.312 1.04302 19.8212 4.55228 19.8212 8.86571C19.8212 10.2613 19.1578 11.8587 19.1511 11.8743Z" fill="#338DCC"/>
<path d="M11.9983 4.17285C9.41003 4.17285 7.30469 6.27872 7.30469 8.86646C7.30469 11.4542 9.41003 13.5601 11.9983 13.5601C14.5866 13.5601 16.6919 11.4542 16.6919 8.86646C16.6919 6.27872 14.5866 4.17285 11.9983 4.17285ZM11.9983 12.517C9.98578 12.517 8.34771 10.8795 8.34771 8.86646C8.34771 6.85342 9.98578 5.21588 11.9983 5.21588C14.0108 5.21588 15.6489 6.85342 15.6489 8.86646C15.6489 10.8795 14.0108 12.517 11.9983 12.517Z" fill="#338DCC"/>
</g>
<defs>
<clipPath id="clip0_1635_1269">
<rect width="24" height="24" fill="white"/>
</clipPath>
</defs>
</svg>
