<svg width="40" height="29" viewBox="0 0 40 29" fill="none" xmlns="http://www.w3.org/2000/svg">
<path d="M5.74925 23.0177C5.71166 23.0177 5.67326 23.0152 5.63406 23.0093C3.80611 22.7333 2.05256 22.1334 0.423808 21.2258C0.0342191 21.0083 -0.113776 20.5013 0.0942176 20.093C0.303012 19.6865 0.785397 19.5317 1.17739 19.7484C2.64134 20.5657 4.2181 21.1045 5.86205 21.3521C6.29964 21.4182 6.60283 21.8423 6.54043 22.2999C6.48283 22.7174 6.14044 23.0177 5.74925 23.0177Z" fill="#338DCC"/>
<path d="M34.2505 23.0178C33.8593 23.0178 33.5169 22.7175 33.4593 22.3009C33.3969 21.8433 33.7001 21.4192 34.1377 21.3531C35.7825 21.1054 37.3584 20.5667 38.8224 19.7494C39.2152 19.5327 39.6968 19.6875 39.9056 20.094C40.1136 20.5014 39.9656 21.0092 39.576 21.2267C37.9472 22.1344 36.1936 22.7342 34.3657 23.0103C34.3265 23.0153 34.2881 23.0178 34.2505 23.0178Z" fill="#338DCC"/>
<path d="M25.8836 15.5076C25.7332 15.5076 25.582 15.4633 25.4476 15.3721C25.0772 15.1194 24.9724 14.6016 25.214 14.2143C26.3476 12.3964 28.2627 11.3105 30.3379 11.3105C30.7803 11.3105 31.1379 11.6845 31.1379 12.1471C31.1379 12.6097 30.7803 12.9837 30.3379 12.9837C28.8051 12.9837 27.3908 13.7851 26.5548 15.1278C26.402 15.3738 26.146 15.5076 25.8836 15.5076Z" fill="#338DCC"/>
<path d="M32.11 12.9839C29.274 12.9839 26.8789 10.4792 26.8789 7.51442C26.8789 4.54961 29.274 2.04492 32.11 2.04492C34.9451 2.04492 37.3402 4.54961 37.3402 7.51442C37.3402 10.4792 34.9451 12.9839 32.11 12.9839ZM32.11 3.71806C30.142 3.71806 28.4789 5.45645 28.4789 7.51442C28.4789 9.57238 30.142 11.3108 32.11 11.3108C34.0779 11.3108 35.7402 9.57238 35.7402 7.51442C35.7402 5.45645 34.0779 3.71806 32.11 3.71806Z" fill="#338DCC"/>
<path d="M39.2006 18.5455C38.7582 18.5455 38.4006 18.1715 38.4006 17.7089C38.4006 15.1047 36.3743 12.9856 33.884 12.9856C33.4416 12.9856 33.084 12.6117 33.084 12.1491C33.084 11.6864 33.4416 11.3125 33.884 11.3125C37.2567 11.3125 40.0006 14.1828 40.0006 17.7089C40.0006 18.1707 39.643 18.5455 39.2006 18.5455Z" fill="#338DCC"/>
<path d="M33.8837 12.9837H30.339C29.8967 12.9837 29.5391 12.6097 29.5391 12.1471C29.5391 11.6845 29.8967 11.3105 30.339 11.3105H33.8837C34.3261 11.3105 34.6837 11.6845 34.6837 12.1471C34.6837 12.6097 34.3253 12.9837 33.8837 12.9837Z" fill="#338DCC"/>
<path d="M39.2004 21.3251C38.758 21.3251 38.4004 20.9512 38.4004 20.4886V17.7086C38.4004 17.246 38.758 16.8721 39.2004 16.8721C39.6428 16.8721 40.0003 17.246 40.0003 17.7086V20.4886C40.0003 20.9512 39.6428 21.3251 39.2004 21.3251Z" fill="#338DCC"/>
<path d="M10.548 21.9424C10.1056 21.9424 9.74805 21.5685 9.74805 21.1059C9.74805 16.5566 13.2871 12.8564 17.6366 12.8564C18.079 12.8564 18.4366 13.2304 18.4366 13.693C18.4366 14.1556 18.079 14.5296 17.6366 14.5296C14.1687 14.5296 11.348 17.4793 11.348 21.1059C11.348 21.5685 10.9896 21.9424 10.548 21.9424Z" fill="#338DCC"/>
<path d="M22.3642 14.5296H17.6379C17.1955 14.5296 16.8379 14.1556 16.8379 13.693C16.8379 13.2304 17.1955 12.8564 17.6379 12.8564H22.3642C22.8065 12.8564 23.1641 13.2304 23.1641 13.693C23.1641 14.1556 22.8065 14.5296 22.3642 14.5296Z" fill="#338DCC"/>
<path d="M14.1175 15.5076C13.8559 15.5076 13.6 15.3738 13.4464 15.1278C12.6096 13.786 11.196 12.9837 9.66326 12.9837C9.22087 12.9837 8.86328 12.6097 8.86328 12.1471C8.86328 11.6845 9.22087 11.3105 9.66326 11.3105C11.7392 11.3105 13.6535 12.3964 14.7871 14.2143C15.0287 14.6016 14.9239 15.1194 14.5535 15.3721C14.4183 15.4633 14.2671 15.5076 14.1175 15.5076Z" fill="#338DCC"/>
<path d="M10.548 25.6485C10.1056 25.6485 9.74805 25.2746 9.74805 24.812V21.1051C9.74805 20.6425 10.1056 20.2686 10.548 20.2686C10.9904 20.2686 11.348 20.6425 11.348 21.1051V24.812C11.348 25.2746 10.9896 25.6485 10.548 25.6485Z" fill="#338DCC"/>
<path d="M20.0008 14.5293C16.3649 14.5293 13.293 11.3169 13.293 7.51464C13.293 3.71243 16.3649 0.5 20.0008 0.5C23.6367 0.5 26.7086 3.71243 26.7086 7.51464C26.7086 11.3169 23.6367 14.5293 20.0008 14.5293ZM20.0008 2.17314C17.2321 2.17314 14.8929 4.61927 14.8929 7.51464C14.8929 10.41 17.2321 12.8561 20.0008 12.8561C22.7695 12.8561 25.1087 10.41 25.1087 7.51464C25.1087 4.61927 22.7695 2.17314 20.0008 2.17314Z" fill="#338DCC"/>
<path d="M29.4511 21.9424C29.0087 21.9424 28.6511 21.5685 28.6511 21.1059C28.6511 17.4793 25.8304 14.5296 22.3625 14.5296C21.9201 14.5296 21.5625 14.1556 21.5625 13.693C21.5625 13.2304 21.9201 12.8564 22.3625 12.8564C26.7127 12.8564 30.251 16.5574 30.251 21.1059C30.251 21.5685 29.8935 21.9424 29.4511 21.9424Z" fill="#338DCC"/>
<path d="M29.4523 25.6485C29.0099 25.6485 28.6523 25.2746 28.6523 24.812V21.1051C28.6523 20.6425 29.0099 20.2686 29.4523 20.2686C29.8947 20.2686 30.2523 20.6425 30.2523 21.1051V24.812C30.2523 25.2746 29.8947 25.6485 29.4523 25.6485Z" fill="#338DCC"/>
<path d="M20.0004 28.1251C16.6245 28.1251 13.2494 27.2667 10.1719 25.551C9.78227 25.3326 9.63427 24.8265 9.84226 24.4182C10.0511 24.0117 10.5326 23.8569 10.9254 24.0736C16.6085 27.2433 23.3939 27.2433 29.0761 24.0736C29.4681 23.8569 29.9513 24.0117 30.1593 24.4182C30.3673 24.8257 30.2193 25.3326 29.8297 25.551C26.7514 27.2659 23.3763 28.1251 20.0004 28.1251Z" fill="#338DCC"/>
<path d="M7.88845 12.9839C5.05333 12.9839 2.6582 10.4792 2.6582 7.51442C2.6582 4.54961 5.05333 2.04492 7.88845 2.04492C10.7236 2.04492 13.1187 4.54961 13.1187 7.51442C13.1187 10.4792 10.7236 12.9839 7.88845 12.9839ZM7.88845 3.71806C5.92051 3.71806 4.25816 5.45645 4.25816 7.51442C4.25816 9.57238 5.92051 11.3108 7.88845 11.3108C9.85639 11.3108 11.5187 9.57238 11.5187 7.51442C11.5187 5.45645 9.85639 3.71806 7.88845 3.71806Z" fill="#338DCC"/>
<path d="M0.799977 18.5455C0.35759 18.5455 0 18.1715 0 17.7089C0 14.1819 2.74472 11.3125 6.11662 11.3125C6.55901 11.3125 6.9166 11.6864 6.9166 12.1491C6.9166 12.6117 6.55901 12.9856 6.11662 12.9856C3.62629 12.9848 1.59995 15.1038 1.59995 17.7089C1.59995 18.1707 1.24236 18.5455 0.799977 18.5455Z" fill="#338DCC"/>
<path d="M9.66108 12.9837H6.11638C5.674 12.9837 5.31641 12.6097 5.31641 12.1471C5.31641 11.6845 5.674 11.3105 6.11638 11.3105H9.66108C10.1035 11.3105 10.4611 11.6845 10.4611 12.1471C10.4611 12.6097 10.1035 12.9837 9.66108 12.9837Z" fill="#338DCC"/>
<path d="M0.799977 21.3251C0.35759 21.3251 0 20.9512 0 20.4886V17.7086C0 17.246 0.35759 16.8721 0.799977 16.8721C1.24236 16.8721 1.59995 17.246 1.59995 17.7086V20.4886C1.59995 20.9512 1.24236 21.3251 0.799977 21.3251Z" fill="#338DCC"/>
</svg>
