<svg width="40" height="40" viewBox="0 0 40 40" fill="none" xmlns="http://www.w3.org/2000/svg">
<path d="M36.1517 29.8241C35.8395 29.8278 35.8737 29.8127 35.4586 29.8417V20.1291C35.4586 19.0897 34.6129 18.244 33.5734 18.244H28.8141C28.8115 18.244 28.8091 18.2436 28.8065 18.2436H23.3259V3.61197L27.8208 7.95689C28.0748 8.20251 28.2205 8.54595 28.2205 8.89931V16.0676C28.2205 16.3912 28.4829 16.6535 28.8065 16.6535C29.1301 16.6535 29.3924 16.3912 29.3924 16.0676V8.89931C29.3924 8.23009 29.1165 7.57946 28.6352 7.11431L23.1471 1.80939C23.0237 1.69361 22.7873 1.5897 22.5532 1.67525L12.7078 4.98462V2.70337C12.7152 1.70658 11.8209 0.838999 10.7805 0.899468C9.78539 0.899468 8.97578 1.70869 8.97578 2.70337V6.23907L6.39992 7.10493C5.38812 7.44509 4.70828 8.39071 4.70828 9.45821V29.8273C2.10086 29.8941 0 32.0345 0 34.6577V37.6372C0 38.4461 0.658047 39.1041 1.46687 39.1041H38.533C39.342 39.1041 39.9999 38.446 39.9999 37.6372V33.6723C40 31.5505 38.2737 29.8241 36.1517 29.8241ZM36.1517 30.996C37.6275 30.996 38.8281 32.1966 38.8281 33.6724V34.2871H33.1445V33.6724C33.1459 32.0708 34.5531 30.8573 36.1517 30.996ZM34.2867 20.1291V30.1441C32.9263 30.738 31.9727 32.0955 31.9727 33.6723V34.287H23.3259V19.4159H33.5734C33.9667 19.4159 34.2867 19.7359 34.2867 20.1291ZM10.1477 2.70337C10.1477 2.35486 10.4316 2.07134 10.7805 2.07134C11.0938 2.02533 11.5158 2.27103 11.5359 2.70337V5.37853L10.1477 5.84517V2.70337ZM4.70836 30.9981V34.2871H1.19047C1.37273 32.4823 2.87109 31.0602 4.70836 30.9981ZM1.17188 37.6373V35.459H4.70836V37.9323H1.46695C1.30422 37.9323 1.17188 37.7999 1.17188 37.6373ZM5.88023 9.45821C5.88023 8.89462 6.23914 8.3954 6.77336 8.21579L22.1541 3.04579V6.23837L9.375 10.5339C9.06828 10.637 8.9032 10.9692 9.00633 11.276C9.08859 11.5209 9.31688 11.6754 9.56164 11.6754C9.62352 11.6754 9.68648 11.6656 9.74844 11.6447L22.1541 7.47478V10.4556L9.375 14.7511C9.06828 14.8542 8.9032 15.1865 9.00633 15.4932C9.08859 15.7381 9.31688 15.8926 9.56164 15.8926C9.62352 15.8926 9.68648 15.8827 9.74844 15.8619L22.1541 11.6919V14.6727L9.375 18.9683C9.06828 19.0713 8.9032 19.4036 9.00633 19.7104C9.08859 19.9552 9.31688 20.1098 9.56164 20.1098C9.62352 20.1098 9.68648 20.0999 9.74844 20.0791L22.1541 15.9091V18.8277C22.1541 18.8285 22.154 18.8292 22.154 18.83V18.8901L9.375 23.1855C9.06828 23.2886 8.9032 23.6209 9.00633 23.9276C9.08859 24.1724 9.31688 24.327 9.56164 24.327C9.62352 24.327 9.68648 24.3171 9.74844 24.2963L22.1539 20.1263V23.1072L14.1745 25.7894C13.8677 25.8924 13.7027 26.2247 13.8058 26.5315C13.888 26.7763 14.1163 26.9309 14.3611 26.9309C14.423 26.9309 14.4859 26.921 14.5479 26.9002L22.1539 24.3434V37.9322H17.092V31.8437C17.092 31.4446 16.9097 31.0773 16.5918 30.836C16.2739 30.5948 15.8711 30.5179 15.4867 30.6252L10.033 32.1477C9.41063 32.3215 8.97594 32.8941 8.97594 33.5404V37.9322H5.88023V9.45821ZM10.1478 33.5405C10.1478 33.418 10.2302 33.3095 10.3481 33.2765L12.448 32.6902V37.9323H10.1477V33.5405H10.1478ZM13.6198 37.9323V32.363L15.8018 31.7539C15.8313 31.7456 15.8587 31.7508 15.8832 31.7695C15.9077 31.788 15.9201 31.813 15.9201 31.8438V37.9323H13.6198ZM23.3259 37.9323V35.459H31.9727V37.9323H23.3259ZM38.8281 37.6373C38.8281 37.8 38.6958 37.9323 38.5331 37.9323H33.1445V35.459H38.8281V37.6373Z" fill="#338DCC"/>
<path d="M9.56258 28.5441C9.62445 28.5441 9.68742 28.5343 9.74937 28.5134L11.9248 27.7822C12.2316 27.6791 12.3966 27.3469 12.2935 27.0401C12.1904 26.7333 11.8581 26.5681 11.5514 26.6714L9.37594 27.4027C9.06922 27.5057 8.90414 27.838 9.00727 28.1448C9.08953 28.3895 9.31781 28.5441 9.56258 28.5441Z" fill="#338DCC"/>
<path d="M25.8924 24.249H31.6386C32.1835 24.249 32.6268 23.8057 32.6268 23.2609V21.8505C32.6268 21.3056 32.1835 20.8623 31.6386 20.8623H25.8924C25.3475 20.8623 24.9043 21.3056 24.9043 21.8505V23.2609C24.9043 23.8057 25.3476 24.249 25.8924 24.249ZM26.0762 22.0342H31.4549V23.0771H26.0762V22.0342Z" fill="#338DCC"/>
<path d="M25.8924 28.7041H31.6386C32.1835 28.7041 32.6268 28.2608 32.6268 27.7159V26.3055C32.6268 25.7606 32.1835 25.3174 31.6386 25.3174H25.8924C25.3475 25.3174 24.9043 25.7607 24.9043 26.3055V27.7159C24.9043 28.2608 25.3476 28.7041 25.8924 28.7041ZM26.0762 26.4893H31.4549V27.5322H26.0762V26.4893Z" fill="#338DCC"/>
<path d="M25.8924 33.2051H27.793C28.338 33.2051 28.7812 32.7618 28.7812 32.217V30.8066C28.7812 30.2616 28.338 29.8184 27.793 29.8184H25.8924C25.3475 29.8184 24.9043 30.2616 24.9043 30.8066V32.217C24.9043 32.7618 25.3476 33.2051 25.8924 33.2051ZM26.0762 30.9902H27.6094V32.0332H26.0762V30.9902Z" fill="#338DCC"/>
</svg>
