<svg width="40" height="40" viewBox="0 0 40 40" fill="none" xmlns="http://www.w3.org/2000/svg">
<path d="M22.3083 0.769531C21.8835 0.769531 21.5391 1.11392 21.5391 1.53876V17.6926C21.5391 18.1175 21.8835 18.4619 22.3083 18.4619H38.4622C38.8869 18.4619 39.2314 18.1175 39.2314 17.6926C39.2314 8.33969 31.6625 0.769531 22.3083 0.769531ZM23.0775 16.9234V2.32699C30.9501 2.71646 37.2845 9.05092 37.6739 16.9234H23.0775Z" fill="#338DCC"/>
<path d="M33.8464 21.5386H18.4618V6.154C18.4618 5.72915 18.1174 5.38477 17.6926 5.38477C8.33968 5.38477 0.769531 12.9537 0.769531 22.3078C0.769531 31.6607 8.33845 39.2309 17.6926 39.2309C27.0455 39.2309 34.6157 31.662 34.6157 22.3078C34.6157 21.8831 34.2712 21.5386 33.8464 21.5386ZM17.6926 37.6924C9.20953 37.6924 2.30799 30.7909 2.30799 22.3078C2.30799 14.0826 8.79614 7.34423 16.9234 6.94223V22.3078C16.9234 22.7326 17.2678 23.0771 17.6926 23.0771H33.0582C32.6561 31.2043 25.9179 37.6924 17.6926 37.6924Z" fill="#338DCC"/>
</svg>
