<svg width="40" height="40" viewBox="0 0 40 40" fill="none" xmlns="http://www.w3.org/2000/svg">
<g clip-path="url(#clip0_906_5900)">
<path d="M20.0008 0C11.853 0 5.22461 6.62842 5.22461 14.7762C5.22461 17.4585 6.42756 20.3433 6.47798 20.465C6.8665 21.3872 7.63313 22.8196 8.18593 23.6593L18.3172 39.01C18.7318 39.6393 19.3454 40 20.0008 40C20.6562 40 21.2698 39.6393 21.6844 39.0109L31.8165 23.6593C32.3702 22.8196 33.136 21.3872 33.5245 20.465C33.5749 20.3442 34.777 17.4594 34.777 14.7762C34.777 6.62842 28.1486 0 20.0008 0ZM31.9217 19.7905C31.5749 20.6171 30.8613 21.9496 30.365 22.7023L20.2329 38.0539C20.033 38.3572 19.9695 38.3572 19.7696 38.0539L9.63747 22.7023C9.14117 21.9496 8.42756 20.6162 8.08076 19.7897C8.06598 19.754 6.96298 17.0986 6.96298 14.7762C6.96298 7.58713 12.8117 1.73837 20.0008 1.73837C27.1898 1.73837 33.0386 7.58713 33.0386 14.7762C33.0386 17.1021 31.933 19.7644 31.9217 19.7905Z" fill="#338DCC"/>
<path d="M20.0004 6.9541C15.6866 6.9541 12.1777 10.4639 12.1777 14.7768C12.1777 19.0897 15.6866 22.5995 20.0004 22.5995C24.3142 22.5995 27.8231 19.0897 27.8231 14.7768C27.8231 10.4639 24.3142 6.9541 20.0004 6.9541ZM20.0004 20.8611C16.6462 20.8611 13.9161 18.1318 13.9161 14.7768C13.9161 11.4217 16.6462 8.69248 20.0004 8.69248C23.3546 8.69248 26.0847 11.4217 26.0847 14.7768C26.0847 18.1318 23.3546 20.8611 20.0004 20.8611Z" fill="#338DCC"/>
</g>
<defs>
<clipPath id="clip0_906_5900">
<rect width="40" height="40" fill="white"/>
</clipPath>
</defs>
</svg>
