<svg width="40" height="39" viewBox="0 0 40 39" fill="none" xmlns="http://www.w3.org/2000/svg">
<path d="M31.3894 10.4463H8.6118C8.28789 10.4463 8.02539 10.7022 8.02539 11.018C8.02539 11.3338 8.28789 11.5898 8.6118 11.5898H31.3894C31.7134 11.5898 31.9759 11.3338 31.9759 11.018C31.9759 10.7022 31.7134 10.4463 31.3894 10.4463Z" fill="#338DCC"/>
<path d="M31.3894 16.6719H8.6118C8.28789 16.6719 8.02539 16.9278 8.02539 17.2436C8.02539 17.5594 8.28789 17.8154 8.6118 17.8154H31.3894C31.7134 17.8154 31.9759 17.5594 31.9759 17.2436C31.9759 16.9278 31.7134 16.6719 31.3894 16.6719Z" fill="#338DCC"/>
<path d="M23.9213 20.7119H16.0786C15.7547 20.7119 15.4922 20.9679 15.4922 21.2837C15.4922 21.5994 15.7547 21.8554 16.0786 21.8554H23.9213C24.2452 21.8554 24.5077 21.5995 24.5077 21.2837C24.5077 20.9679 24.2452 20.7119 23.9213 20.7119Z" fill="#338DCC"/>
<path d="M31.3891 13.5469H14.3989C14.075 13.5469 13.8125 13.8028 13.8125 14.1186C13.8125 14.4344 14.075 14.6904 14.3989 14.6904H31.3891C31.713 14.6904 31.9755 14.4344 31.9755 14.1186C31.9755 13.8028 31.713 13.5469 31.3891 13.5469Z" fill="#338DCC"/>
<path d="M11.671 13.5469H8.6118C8.28789 13.5469 8.02539 13.8028 8.02539 14.1186C8.02539 14.4344 8.28789 14.6904 8.6118 14.6904H11.671C11.9949 14.6904 12.2574 14.4344 12.2574 14.1186C12.2574 13.8029 11.9949 13.5469 11.671 13.5469Z" fill="#338DCC"/>
<path d="M36.972 9.48074C36.8356 9.3501 36.655 9.2782 36.4624 9.2782C36.4623 9.2782 36.4622 9.2782 36.462 9.2782C35.2735 9.2782 34.3008 8.37236 34.2473 7.21562C34.2297 6.83948 33.9127 6.54492 33.5256 6.54492H6.33336C5.94617 6.54492 5.62906 6.83955 5.61156 7.216C5.56055 8.32133 4.6325 9.22625 3.49875 9.27599C3.11281 9.2929 2.81055 9.60208 2.81055 9.97974V24.7587C2.81055 25.1363 3.11281 25.4455 3.49875 25.4624C4.6325 25.5122 5.56055 26.417 5.61156 27.5227C5.62914 27.8989 5.94625 28.1934 6.33336 28.1934H23.6441C23.968 28.1934 24.2305 27.9375 24.2305 27.6217C24.2305 27.306 23.968 27.0499 23.6441 27.0499H6.73664C6.49422 25.6728 5.3957 24.6018 3.98328 24.3653V10.3729C5.3957 10.1365 6.49422 9.06522 6.73664 7.68834H33.1225C33.3748 9.10894 34.5479 10.2055 36.0152 10.3932V20.1028C36.0152 20.4185 36.2777 20.6745 36.6016 20.6745C36.9255 20.6745 37.188 20.4186 37.188 20.1028V9.98294C37.188 9.79259 37.1113 9.61419 36.972 9.48074Z" fill="#338DCC"/>
<path d="M38.3723 3.69043H1.62773C0.730234 3.69043 0 4.40241 0 5.27747V29.4598C0 30.3349 0.730234 31.0468 1.62773 31.0468H26.2409L25.3695 32.8272C25.2575 33.0558 25.2848 33.3238 25.4404 33.5266C25.5961 33.7294 25.8523 33.8302 26.1086 33.7902L27.7309 33.5359L28.6359 34.9842C28.7627 35.1874 28.9882 35.3101 29.2305 35.3101C29.2423 35.3101 29.2541 35.3098 29.266 35.3091C29.5216 35.2965 29.7489 35.1487 29.8593 34.9234L31.4316 31.711L33.0038 34.9232C33.114 35.1485 33.3412 35.2964 33.597 35.3092C33.6089 35.3098 33.6209 35.3101 33.6328 35.3101C33.8751 35.3101 34.1005 35.1875 34.2274 34.9843L35.1323 33.5361L36.7547 33.7904C37.0118 33.8305 37.2675 33.7294 37.423 33.5265C37.5787 33.3236 37.6057 33.0556 37.4938 32.8274L36.6223 31.047H38.3723C39.2698 31.047 40 30.3351 40 29.46V5.27747C40 4.40241 39.2698 3.69043 38.3723 3.69043ZM29.1798 33.6568L28.5659 32.6746C28.4181 32.438 28.1414 32.3135 27.8606 32.3575L26.8189 32.5208L27.9163 30.2789C28.3488 30.7092 28.9649 30.9417 29.6045 30.8829C29.8232 30.8625 30.0424 30.92 30.2216 31.0441C30.2806 31.085 30.342 31.1214 30.4041 31.1556L29.1798 33.6568ZM31.5715 30.2666C31.5697 30.2668 31.5679 30.2669 31.566 30.2673C31.4771 30.28 31.3867 30.28 31.2978 30.2673C31.2955 30.267 31.2933 30.2668 31.2911 30.2665C31.1534 30.2457 31.0195 30.1943 30.9009 30.1121C30.5462 29.8662 30.1227 29.7355 29.6906 29.7355C29.6252 29.7355 29.5595 29.7385 29.4939 29.7446C29.1057 29.7803 28.7369 29.5724 28.5748 29.2272C28.5029 29.0739 28.4111 28.9321 28.3045 28.8024C28.2998 28.7959 28.2947 28.7898 28.2898 28.7836C28.2838 28.7766 28.2783 28.7693 28.2723 28.7624C28.2655 28.7546 28.2584 28.7472 28.2512 28.7399C28.0573 28.5223 27.8177 28.3447 27.5448 28.2229C27.1906 28.065 26.9774 27.7048 27.0141 27.3268C27.0613 26.8404 26.9275 26.3532 26.6372 25.955C26.4115 25.6455 26.4115 25.2297 26.6371 24.9202C26.9275 24.5221 27.0613 24.0349 27.0141 23.5484C26.9774 23.1704 27.1907 22.8103 27.5448 22.6523C28.0005 22.449 28.3662 22.0923 28.5748 21.648C28.7369 21.3027 29.107 21.0948 29.4939 21.1307C29.9934 21.1766 30.4926 21.0461 30.9009 20.7631C31.2184 20.5431 31.6449 20.5431 31.9623 20.7631C32.3707 21.0461 32.87 21.1763 33.3693 21.1307C33.7573 21.0947 34.1265 21.3028 34.2885 21.648C34.497 22.0923 34.8628 22.449 35.3184 22.6522C35.6726 22.8103 35.8859 23.1704 35.8491 23.5484C35.802 24.0349 35.9358 24.5221 36.2261 24.9201C36.4518 25.2296 36.4518 25.6454 36.2261 25.9549C35.9358 26.3532 35.802 26.8404 35.8491 27.3267C35.8859 27.7048 35.6726 28.0649 35.3184 28.2229C35.0461 28.3444 34.807 28.5216 34.6134 28.7385C34.6054 28.7466 34.5976 28.7547 34.5902 28.7632C34.5852 28.7691 34.5804 28.7753 34.5753 28.7813C34.5695 28.7886 34.5635 28.7958 34.558 28.8033C34.4518 28.9328 34.3602 29.0743 34.2885 29.2272C34.1264 29.5724 33.757 29.7804 33.3693 29.7446C32.8709 29.6988 32.3709 29.829 31.9623 30.1121C31.8435 30.1944 31.7095 30.2458 31.5715 30.2666ZM35.0026 32.3574C34.7217 32.3136 34.4452 32.438 34.2973 32.6747L33.6835 33.6569L32.4592 31.1556C32.5213 31.1214 32.5826 31.085 32.6417 31.0441C32.8209 30.9199 33.0403 30.8623 33.2588 30.8829C33.8986 30.9417 34.5146 30.7092 34.9471 30.2789L36.0444 32.5207L35.0026 32.3574ZM38.8273 29.4598C38.8273 29.7044 38.6232 29.9035 38.3723 29.9035H36.0627L35.7603 29.2857C35.7755 29.2779 35.7907 29.2696 35.8065 29.2626C36.614 28.9023 37.1003 28.081 37.0166 27.219C36.9959 27.0057 37.0546 26.7921 37.182 26.6174C37.6965 25.9117 37.6965 24.9633 37.1819 24.2576C37.0546 24.083 36.9959 23.8694 37.0166 23.6561C37.1003 22.7941 36.614 21.9728 35.8064 21.6125C35.6066 21.5233 35.4462 21.3669 35.3548 21.1721C34.9852 20.3847 34.1425 19.9107 33.2587 19.9922C33.0398 20.0125 32.8208 19.9552 32.6417 19.831C31.9179 19.3294 30.9452 19.3293 30.2214 19.831C30.0423 19.9552 29.8227 20.0125 29.6045 19.9921C28.7193 19.9109 27.8779 20.3847 27.5084 21.172C27.417 21.3669 27.2566 21.5232 27.0567 21.6124C26.2492 21.9727 25.7629 22.794 25.8466 23.656C25.8673 23.8693 25.8086 24.0829 25.6812 24.2576C25.1667 24.9633 25.1667 25.9117 25.6812 26.6173C25.8086 26.7919 25.8673 27.0056 25.8466 27.2189C25.7629 28.081 26.2492 28.9023 27.0567 29.2625C27.0725 29.2696 27.0876 29.2778 27.1028 29.2856L26.8005 29.9035H1.62773C1.37687 29.9035 1.17273 29.7045 1.17273 29.4598V5.27747C1.17273 5.03288 1.3768 4.83385 1.62773 4.83385H38.3723C38.6231 4.83385 38.8273 5.03288 38.8273 5.27747V29.4598Z" fill="#338DCC"/>
<path d="M31.3894 21.8857C29.3805 21.8857 27.7461 23.4793 27.7461 25.4379C27.7461 27.3966 29.3805 28.9901 31.3894 28.9901C33.3983 28.9901 35.0326 27.3965 35.0326 25.4379C35.0326 23.4792 33.3983 21.8857 31.3894 21.8857ZM31.3894 27.8466C30.0271 27.8466 28.9188 26.766 28.9188 25.4378C28.9188 24.1097 30.0271 23.0291 31.3894 23.0291C32.7516 23.0291 33.8598 24.1097 33.8598 25.4378C33.8598 26.766 32.7516 27.8466 31.3894 27.8466Z" fill="#338DCC"/>
</svg>
