<svg width="282" height="512" viewBox="0 0 282 512" fill="none" xmlns="http://www.w3.org/2000/svg">
<path d="M280.896 435.648L277.628 407.2L273.799 373.692L267.799 321.292L259.828 252.2L252.111 185L246.719 138L242.032 97.2L238.924 70.168C238.17 63.5872 235.023 57.5132 230.081 53.1029C225.139 48.6927 218.747 46.2542 212.123 46.252H200.999V26.988C200.988 19.8318 198.139 12.9723 193.078 7.91322C188.016 2.85417 181.156 0.00846188 173.999 0L108 0C100.843 0.00846188 93.9825 2.85417 88.9212 7.91322C83.8599 12.9723 81.0111 19.8318 80.9995 26.988V46.252H69.8955C63.2678 46.2492 56.8708 48.6853 51.9239 53.096C46.9769 57.5066 43.8259 63.5834 43.0715 70.168L39.9675 97.2L32.4835 162.4L26.9315 210.72L22.1675 252.2L17.5355 292.54L11.6835 343.492L4.3675 407.2L1.1035 435.648C0.670027 439.429 1.04052 443.258 2.19067 446.886C3.34083 450.513 5.24468 453.857 7.77741 456.697C10.3101 459.537 13.4146 461.81 16.8872 463.366C20.3597 464.923 24.1221 465.727 27.9275 465.728H36.3755V484.988C36.384 492.146 39.2313 499.009 44.293 504.071C49.3546 509.132 56.2173 511.98 63.3755 511.988H218.623C225.782 511.98 232.644 509.132 237.706 504.071C242.768 499.009 245.615 492.146 245.623 484.988V465.728H254.071C257.877 465.727 261.639 464.923 265.112 463.366C268.584 461.81 271.689 459.537 274.222 456.697C276.754 453.857 278.658 450.513 279.808 446.886C280.958 443.258 281.329 439.429 280.896 435.648ZM47.3995 155.16L53.1595 105H228.835L232.036 132.696L165.476 140.8L47.3995 155.16ZM26.3875 338.184L30.6435 301.14L79.4435 307.076L254.484 328.376L258.859 366.468L121.824 349.796L26.3875 338.184ZM147.82 301.292L32.2395 287.228L35.3635 260H246.631L252.839 314.072L147.82 301.292ZM199.528 150.752L233.611 146.604L237.411 179.704L41.8515 203.496L45.7595 169.464L199.528 150.752ZM36.9715 246L40.2115 217.804L167.044 202.368L238.999 193.6L244.999 246H36.9715ZM24.7915 352.092L78.9995 358.692L260.492 380.772L262.812 401H19.1715L24.7915 352.092ZM94.9995 26.988C95.0069 23.5436 96.3793 20.2425 98.816 17.808C101.253 15.3736 104.555 14.0042 108 14H173.999C177.446 14.0042 180.75 15.3752 183.187 17.8123C185.624 20.2493 186.995 23.5535 186.999 27V46.264H94.9995V26.988ZM56.9995 71.768C57.3629 68.5975 58.8802 65.6715 61.2622 63.5478C63.6441 61.424 66.7242 60.2509 69.9155 60.252H212.104C215.295 60.2509 218.375 61.424 220.757 63.5478C223.139 65.6715 224.656 68.5975 225.019 71.768L227.227 91H54.7715L56.9995 71.768ZM231.623 484.988C231.619 488.435 230.248 491.739 227.811 494.176C225.374 496.613 222.07 497.984 218.623 497.988H63.3755C59.929 497.984 56.6249 496.613 54.1878 494.176C51.7507 491.739 50.3797 488.435 50.3755 484.988V465.728H231.623V484.988ZM263.772 447.388C262.559 448.763 261.065 449.862 259.392 450.612C257.719 451.362 255.905 451.745 254.071 451.736H27.9275C26.095 451.736 24.2832 451.349 22.6109 450.6C20.9386 449.85 19.4436 448.756 18.224 447.388C17.0043 446.021 16.0877 444.41 15.534 442.664C14.9804 440.917 14.8023 439.073 15.0115 437.252L17.5675 415.008H264.432L266.988 437.252C267.204 439.072 267.029 440.917 266.474 442.664C265.92 444.41 264.998 446.018 263.772 447.38V447.388Z" fill="#338DCC"/>
</svg>
