<svg width="16" height="14" viewBox="0 0 16 14" fill="none" xmlns="http://www.w3.org/2000/svg">
<path d="M15.9062 6.15625C15.9688 6.21875 16 6.28125 16 6.34375C16 6.40625 15.9792 6.45833 15.9375 6.5L15.625 6.90625C15.5833 6.96875 15.5208 7 15.4375 7C15.375 7 15.3229 6.97917 15.2812 6.9375L14 5.90625V13.5C14 13.625 13.9531 13.7396 13.8594 13.8438C13.7656 13.9479 13.6458 14 13.5 14H9.5C9.35417 14 9.23438 13.9531 9.14062 13.8594C9.04688 13.7656 9 13.6458 9 13.5V9.5H7V13.5C7 13.625 6.95312 13.7396 6.85938 13.8438C6.76562 13.9479 6.64583 14 6.5 14H2.5C2.35417 14 2.23438 13.9479 2.14062 13.8438C2.04688 13.7396 2 13.625 2 13.5V5.90625L0.71875 6.9375C0.677083 6.97917 0.625 7 0.5625 7C0.479167 7 0.416667 6.96875 0.375 6.90625L0.0625 6.5C0.0208333 6.45833 0 6.40625 0 6.34375C0 6.28125 0.03125 6.21875 0.09375 6.15625L7.375 0.21875C7.5625 0.072917 7.77083 0 8 0C8.22917 0 8.4375 0.072917 8.625 0.21875L13 3.78125V2.1875C13 2.0625 13.0625 2 13.1875 2H13.8125C13.9375 2 14 2.0625 14 2.1875V4.59375L15.9062 6.15625ZM13 13V5.09375L8 1L3 5.09375V13H6V9C6 8.85417 6.04688 8.73438 6.14062 8.64062C6.23438 8.54688 6.35417 8.5 6.5 8.5H9.5C9.5625 8.5 9.625 8.51042 9.6875 8.53125C9.75 8.55208 9.80208 8.58854 9.84375 8.64062C9.88542 8.69271 9.92188 8.75 9.95312 8.8125C9.98438 8.875 10 8.9375 10 9V13H13Z" fill="white"/>
</svg>
