<svg width="442" height="196" viewBox="0 0 442 196" fill="none" xmlns="http://www.w3.org/2000/svg">
<path d="M167.28 64.384C164.784 64.384 162.768 63.616 161.232 62.08C159.728 60.512 158.976 58.464 158.976 55.936V48.544C158.976 45.888 159.728 43.744 161.232 42.112C162.768 40.48 164.768 39.664 167.232 39.664H171.168C173.504 39.664 175.376 40.304 176.784 41.584C178.224 42.864 178.944 44.544 178.944 46.624H176.448C176.448 45.216 175.952 44.096 174.96 43.264C174 42.4 172.736 41.968 171.168 41.968H167.232C165.536 41.968 164.16 42.576 163.104 43.792C162.08 44.976 161.568 46.56 161.568 48.544V55.936C161.568 57.792 162.08 59.28 163.104 60.4C164.16 61.52 165.552 62.08 167.28 62.08H171.216C172.816 62.08 174.112 61.52 175.104 60.4C176.096 59.28 176.592 57.808 176.592 55.984H179.088C179.088 58.512 178.368 60.544 176.928 62.08C175.488 63.616 173.584 64.384 171.216 64.384H167.28ZM192.11 64.384C190.03 64.384 188.334 63.68 187.022 62.272C185.71 60.832 185.054 58.944 185.054 56.608V40.048H187.646V56.656C187.646 58.256 188.046 59.568 188.846 60.592C189.678 61.584 190.766 62.08 192.11 62.08H195.086C196.014 62.08 196.958 61.776 197.918 61.168C198.878 60.56 199.726 59.744 200.462 58.72C201.198 57.664 201.694 56.56 201.95 55.408V40.048H204.494V64H201.998V59.68C201.198 61.056 200.158 62.192 198.878 63.088C197.598 63.952 196.366 64.384 195.182 64.384H192.11ZM189.566 29.008H192.542L196.574 35.92H194.078L189.566 29.008ZM212.389 40.048H214.885V44.128C215.685 42.752 216.693 41.664 217.909 40.864C219.157 40.064 220.421 39.664 221.701 39.664H224.917C226.997 39.664 228.677 40.4 229.957 41.872C231.269 43.312 231.925 45.232 231.925 47.632V64H229.381V47.584C229.381 45.92 228.965 44.576 228.133 43.552C227.301 42.496 226.213 41.968 224.869 41.968H221.749C220.309 41.968 218.949 42.56 217.669 43.744C216.389 44.928 215.493 46.464 214.981 48.352V64H212.389V40.048ZM246.874 73.744C244.89 73.744 243.258 73.216 241.978 72.16C240.698 71.136 239.978 69.776 239.818 68.08H242.41C242.538 69.104 243.002 69.92 243.802 70.528C244.634 71.168 245.658 71.488 246.874 71.488H250.858C252.65 71.488 254.042 70.896 255.034 69.712C256.026 68.56 256.522 66.944 256.522 64.864V60.16C255.754 61.312 254.778 62.24 253.594 62.944C252.442 63.648 251.274 64 250.09 64H246.538C244.17 64 242.25 63.184 240.778 61.552C239.306 59.92 238.57 57.76 238.57 55.072V48.88C238.57 46.128 239.338 43.904 240.874 42.208C242.442 40.512 244.506 39.664 247.066 39.664H250.618C251.77 39.664 252.89 39.984 253.978 40.624C255.098 41.232 255.962 42.048 256.57 43.072V40.048H259.066V64.864C259.066 67.648 258.346 69.824 256.906 71.392C255.466 72.96 253.45 73.744 250.858 73.744H246.874ZM250.042 61.696C251.642 61.696 253.034 61.072 254.218 59.824C255.434 58.544 256.202 57.056 256.522 55.36V47.392C256.234 45.792 255.53 44.496 254.41 43.504C253.322 42.48 252.058 41.968 250.618 41.968H247.114C245.322 41.968 243.882 42.608 242.794 43.888C241.706 45.168 241.162 46.832 241.162 48.88V55.072C241.162 57.024 241.658 58.624 242.65 59.872C243.674 61.088 244.986 61.696 246.586 61.696H250.042ZM288.212 64C285.78 64 284.036 63.488 282.98 62.464C281.924 61.408 281.396 59.68 281.396 57.28V42.352H277.172V40.048H281.396V32.8H283.94V40.048H290.18V42.352H283.94V57.28C283.94 58.848 284.26 59.984 284.9 60.688C285.54 61.36 286.612 61.696 288.116 61.696H290.18V64H288.212ZM297.092 30.4H299.684V43.984C300.484 42.64 301.476 41.584 302.66 40.816C303.876 40.048 305.124 39.664 306.404 39.664H309.716C311.796 39.664 313.476 40.4 314.756 41.872C316.068 43.312 316.724 45.232 316.724 47.632V64H314.18V47.584C314.18 45.92 313.764 44.576 312.932 43.552C312.1 42.496 311.012 41.968 309.668 41.968H306.452C305.012 41.968 303.652 42.56 302.372 43.744C301.092 44.896 300.196 46.416 299.684 48.304V64H297.092V30.4ZM350.343 39.904V40.432C350.343 42.768 349.815 44.608 348.759 45.952C347.735 47.296 346.295 48.032 344.439 48.16V48.448V55.6C344.439 58.224 343.639 60.352 342.039 61.984C340.439 63.584 338.327 64.384 335.703 64.384H331.911C329.351 64.384 327.287 63.584 325.719 61.984C324.151 60.352 323.367 58.224 323.367 55.6V48.448C323.367 45.824 324.151 43.712 325.719 42.112C327.319 40.48 329.415 39.664 332.007 39.664H335.799C337.943 39.664 339.751 40.24 341.223 41.392C342.727 42.512 343.703 44.032 344.151 45.952C345.367 45.888 346.295 45.392 346.935 44.464C347.575 43.504 347.895 42.16 347.895 40.432V39.904H350.343ZM341.895 48.448C341.895 46.496 341.335 44.928 340.215 43.744C339.095 42.56 337.623 41.968 335.799 41.968H332.007C330.183 41.968 328.711 42.56 327.591 43.744C326.503 44.928 325.959 46.496 325.959 48.448V55.6C325.959 57.552 326.503 59.12 327.591 60.304C328.679 61.488 330.119 62.08 331.911 62.08H335.703C337.559 62.08 339.047 61.488 340.167 60.304C341.319 59.12 341.895 57.552 341.895 55.6V48.448ZM328.551 29.008H331.527L335.559 35.92H333.063L328.551 29.008ZM356.299 35.968C355.659 35.968 355.131 35.776 354.715 35.392C354.331 35.008 354.139 34.496 354.139 33.856C354.139 33.216 354.331 32.704 354.715 32.32C355.131 31.904 355.659 31.696 356.299 31.696C356.939 31.696 357.451 31.904 357.835 32.32C358.219 32.704 358.411 33.216 358.411 33.856C358.411 34.464 358.219 34.976 357.835 35.392C357.451 35.776 356.939 35.968 356.299 35.968ZM355.003 40.048H357.547V64H355.003V40.048ZM401.748 36.064H397.956V64H395.46V59.968C394.66 61.344 393.668 62.432 392.484 63.232C391.332 64 390.116 64.384 388.836 64.384H385.428C383.06 64.384 381.14 63.568 379.668 61.936C378.196 60.272 377.46 58.096 377.46 55.408V48.976C377.46 46.192 378.228 43.952 379.764 42.256C381.332 40.528 383.38 39.664 385.908 39.664H389.556C390.676 39.664 391.764 39.968 392.82 40.576C393.908 41.152 394.772 41.936 395.412 42.928V36.064H387.636V33.904H395.412V30.4H397.956V33.904H401.748V36.064ZM395.412 47.488C395.092 45.856 394.388 44.528 393.3 43.504C392.212 42.48 390.948 41.968 389.508 41.968H385.956C384.164 41.968 382.724 42.608 381.636 43.888C380.58 45.168 380.052 46.864 380.052 48.976V55.408C380.052 57.392 380.548 59.008 381.54 60.256C382.564 61.472 383.876 62.08 385.476 62.08H388.788C390.292 62.08 391.684 61.424 392.964 60.112C394.244 58.768 395.06 57.152 395.412 55.264V47.488ZM413.403 64.384C411.163 64.384 409.371 63.808 408.027 62.656C406.683 61.472 406.011 59.904 406.011 57.952V56.128C406.011 54.176 406.699 52.624 408.075 51.472C409.451 50.32 411.275 49.744 413.547 49.744H416.667C417.755 49.744 418.875 49.92 420.027 50.272C421.211 50.624 422.219 51.104 423.051 51.712V47.056C423.051 45.552 422.587 44.32 421.659 43.36C420.731 42.4 419.531 41.92 418.059 41.92H414.315C412.811 41.92 411.595 42.272 410.667 42.976C409.739 43.68 409.275 44.624 409.275 45.808H406.683C406.683 43.952 407.387 42.464 408.795 41.344C410.203 40.224 412.043 39.664 414.315 39.664H418.059C420.331 39.664 422.139 40.336 423.483 41.68C424.859 43.024 425.547 44.816 425.547 47.056V64H423.099V60.256C422.267 61.536 421.243 62.544 420.027 63.28C418.811 64.016 417.579 64.384 416.331 64.384H413.403ZM416.379 62.08C417.723 62.08 419.003 61.6 420.219 60.64C421.467 59.68 422.411 58.416 423.051 56.848V54.256C422.347 53.584 421.403 53.04 420.219 52.624C419.067 52.208 417.883 52 416.667 52H413.547C412.043 52 410.843 52.384 409.947 53.152C409.051 53.888 408.603 54.88 408.603 56.128V57.952C408.603 59.2 409.035 60.208 409.899 60.976C410.763 61.712 411.931 62.08 413.403 62.08H416.379ZM416.283 72.448C415.643 72.448 415.115 72.24 414.699 71.824C414.283 71.408 414.075 70.88 414.075 70.24C414.075 69.6 414.283 69.072 414.699 68.656C415.115 68.272 415.643 68.08 416.283 68.08C416.923 68.08 417.451 68.272 417.867 68.656C418.283 69.072 418.491 69.6 418.491 70.24C418.491 70.88 418.283 71.408 417.867 71.824C417.451 72.24 416.923 72.448 416.283 72.448ZM435.284 35.968C434.644 35.968 434.116 35.776 433.7 35.392C433.316 35.008 433.124 34.496 433.124 33.856C433.124 33.216 433.316 32.704 433.7 32.32C434.116 31.904 434.644 31.696 435.284 31.696C435.924 31.696 436.436 31.904 436.82 32.32C437.204 32.704 437.396 33.216 437.396 33.856C437.396 34.464 437.204 34.976 436.82 35.392C436.436 35.776 435.924 35.968 435.284 35.968ZM433.988 40.048H436.532V64H433.988V40.048Z" fill="#111111"></path>
<path d="M163.808 180C163.232 180 162.752 179.856 162.368 179.568C162.016 179.248 161.712 178.752 161.456 178.08L153.056 156.048H155.792L163.664 177.264H163.712L171.584 156.048H174.272L165.056 180H163.808ZM204.733 155.904V156.432C204.733 158.768 204.205 160.608 203.149 161.952C202.125 163.296 200.685 164.032 198.829 164.16V164.448V171.6C198.829 174.224 198.029 176.352 196.429 177.984C194.829 179.584 192.717 180.384 190.093 180.384H186.301C183.741 180.384 181.677 179.584 180.109 177.984C178.541 176.352 177.757 174.224 177.757 171.6V164.448C177.757 161.824 178.541 159.712 180.109 158.112C181.709 156.48 183.805 155.664 186.397 155.664H190.189C192.333 155.664 194.141 156.24 195.613 157.392C197.117 158.512 198.093 160.032 198.541 161.952C199.757 161.888 200.685 161.392 201.325 160.464C201.965 159.504 202.285 158.16 202.285 156.432V155.904H204.733ZM196.285 164.448C196.285 162.496 195.725 160.928 194.605 159.744C193.485 158.56 192.013 157.968 190.189 157.968H186.397C184.573 157.968 183.101 158.56 181.981 159.744C180.893 160.928 180.349 162.496 180.349 164.448V171.6C180.349 173.552 180.893 175.12 181.981 176.304C183.069 177.488 184.509 178.08 186.301 178.08H190.093C191.949 178.08 193.437 177.488 194.557 176.304C195.709 175.12 196.285 173.552 196.285 171.6V164.448ZM191.005 145.008H193.981L189.469 151.92H186.973L191.005 145.008ZM210.69 151.968C210.05 151.968 209.522 151.776 209.106 151.392C208.722 151.008 208.53 150.496 208.53 149.856C208.53 149.216 208.722 148.704 209.106 148.32C209.522 147.904 210.05 147.696 210.69 147.696C211.33 147.696 211.842 147.904 212.226 148.32C212.61 148.704 212.802 149.216 212.802 149.856C212.802 150.464 212.61 150.976 212.226 151.392C211.842 151.776 211.33 151.968 210.69 151.968ZM209.394 156.048H211.938V180H209.394V156.048ZM232.811 156.048H235.307V160.128C236.107 158.752 237.115 157.664 238.331 156.864C239.579 156.064 240.843 155.664 242.123 155.664H245.339C247.419 155.664 249.099 156.4 250.379 157.872C251.691 159.312 252.347 161.232 252.347 163.632V180H249.803V163.584C249.803 161.92 249.387 160.576 248.555 159.552C247.723 158.496 246.635 157.968 245.291 157.968H242.171C240.731 157.968 239.371 158.56 238.091 159.744C236.811 160.928 235.915 162.464 235.403 164.352V180H232.811V156.048ZM259.952 146.4H262.544V159.984C263.344 158.64 264.336 157.584 265.52 156.816C266.736 156.048 267.984 155.664 269.264 155.664H272.576C274.656 155.664 276.336 156.4 277.616 157.872C278.928 159.312 279.584 161.232 279.584 163.632V180H277.04V163.584C277.04 161.92 276.624 160.576 275.792 159.552C274.96 158.496 273.872 157.968 272.528 157.968H269.312C267.872 157.968 266.512 158.56 265.232 159.744C263.952 160.896 263.056 162.416 262.544 164.304V180H259.952V146.4ZM293.762 180.384C291.522 180.384 289.73 179.808 288.386 178.656C287.042 177.472 286.37 175.904 286.37 173.952V172.128C286.37 170.176 287.058 168.624 288.434 167.472C289.81 166.32 291.634 165.744 293.906 165.744H297.026C298.114 165.744 299.234 165.92 300.386 166.272C301.57 166.624 302.578 167.104 303.41 167.712V163.056C303.41 161.552 302.946 160.32 302.018 159.36C301.09 158.4 299.89 157.92 298.418 157.92H294.674C293.17 157.92 291.954 158.272 291.026 158.976C290.098 159.68 289.634 160.624 289.634 161.808H287.042C287.042 159.952 287.746 158.464 289.154 157.344C290.562 156.224 292.402 155.664 294.674 155.664H298.418C300.69 155.664 302.498 156.336 303.842 157.68C305.218 159.024 305.906 160.816 305.906 163.056V180H303.458V176.256C302.626 177.536 301.602 178.544 300.386 179.28C299.17 180.016 297.938 180.384 296.69 180.384H293.762ZM296.738 178.08C298.082 178.08 299.362 177.6 300.578 176.64C301.826 175.68 302.77 174.416 303.41 172.848V170.256C302.706 169.584 301.762 169.04 300.578 168.624C299.426 168.208 298.242 168 297.026 168H293.906C292.402 168 291.202 168.384 290.306 169.152C289.41 169.888 288.962 170.88 288.962 172.128V173.952C288.962 175.2 289.394 176.208 290.258 176.976C291.122 177.712 292.29 178.08 293.762 178.08H296.738ZM295.538 144.624H297.698L303.314 151.92H300.77L296.642 146.448L292.514 151.92H289.97L295.538 144.624ZM313.483 156.048H315.979V160.128C316.779 158.752 317.787 157.664 319.003 156.864C320.251 156.064 321.515 155.664 322.795 155.664H326.011C328.091 155.664 329.771 156.4 331.051 157.872C332.363 159.312 333.019 161.232 333.019 163.632V180H330.475V163.584C330.475 161.92 330.059 160.576 329.227 159.552C328.395 158.496 327.307 157.968 325.963 157.968H322.843C321.403 157.968 320.043 158.56 318.763 159.744C317.483 160.928 316.587 162.464 316.075 164.352V180H313.483V156.048ZM360.636 180C360.06 180 359.58 179.856 359.196 179.568C358.844 179.248 358.54 178.752 358.284 178.08L349.884 156.048H352.62L360.492 177.264H360.54L368.412 156.048H371.1L361.884 180H360.636ZM381.84 180.384C379.6 180.384 377.808 179.808 376.464 178.656C375.12 177.472 374.448 175.904 374.448 173.952V172.128C374.448 170.176 375.136 168.624 376.512 167.472C377.888 166.32 379.712 165.744 381.984 165.744H385.104C386.192 165.744 387.312 165.92 388.464 166.272C389.648 166.624 390.656 167.104 391.488 167.712V163.056C391.488 161.552 391.024 160.32 390.096 159.36C389.168 158.4 387.968 157.92 386.496 157.92H382.752C381.248 157.92 380.032 158.272 379.104 158.976C378.176 159.68 377.712 160.624 377.712 161.808H375.12C375.12 159.952 375.824 158.464 377.232 157.344C378.64 156.224 380.48 155.664 382.752 155.664H386.496C388.768 155.664 390.576 156.336 391.92 157.68C393.296 159.024 393.984 160.816 393.984 163.056V180H391.536V176.256C390.704 177.536 389.68 178.544 388.464 179.28C387.248 180.016 386.016 180.384 384.768 180.384H381.84ZM384.816 178.08C386.16 178.08 387.44 177.6 388.656 176.64C389.904 175.68 390.848 174.416 391.488 172.848V170.256C390.784 169.584 389.84 169.04 388.656 168.624C387.504 168.208 386.32 168 385.104 168H381.984C380.48 168 379.28 168.384 378.384 169.152C377.488 169.888 377.04 170.88 377.04 172.128V173.952C377.04 175.2 377.472 176.208 378.336 176.976C379.2 177.712 380.368 178.08 381.84 178.08H384.816ZM384.432 152.304C382.544 152.304 381.024 151.76 379.872 150.672C378.752 149.584 378.192 148.16 378.192 146.4V146.112H380.352V146.4C380.352 147.648 380.72 148.64 381.456 149.376C382.192 150.08 383.184 150.432 384.432 150.432H385.008C386.256 150.432 387.248 150.08 387.984 149.376C388.72 148.64 389.088 147.648 389.088 146.4V146.112H391.248V146.4C391.248 148.16 390.672 149.584 389.52 150.672C388.4 151.76 386.896 152.304 385.008 152.304H384.432ZM401.561 156.048H404.057V160.128C404.857 158.752 405.865 157.664 407.081 156.864C408.329 156.064 409.593 155.664 410.873 155.664H414.089C416.169 155.664 417.849 156.4 419.129 157.872C420.441 159.312 421.097 161.232 421.097 163.632V180H418.553V163.584C418.553 161.92 418.137 160.576 417.305 159.552C416.473 158.496 415.385 157.968 414.041 157.968H410.921C409.481 157.968 408.121 158.56 406.841 159.744C405.561 160.928 404.665 162.464 404.153 164.352V180H401.561V156.048Z" fill="#111111"></path>
<path d="M3.968 19.2H12.8V37.696H33.664V19.2H42.496V64H33.664V45.376H12.8V64H3.968V19.2ZM66.2135 64.512C62.8428 64.512 59.8562 63.808 57.2535 62.4C54.6935 60.9493 52.6882 58.944 51.2375 56.384C49.8295 53.7813 49.1255 50.7733 49.1255 47.36V35.84C49.1255 32.4267 49.8295 29.44 51.2375 26.88C52.6882 24.2773 54.6935 22.272 57.2535 20.864C59.8562 19.4133 62.8428 18.688 66.2135 18.688H72.9975C76.3682 18.688 79.3335 19.4133 81.8935 20.864C84.4962 22.272 86.5015 24.2773 87.9095 26.88C89.3602 29.44 90.0855 32.4267 90.0855 35.84V47.36C90.0855 50.7733 89.3602 53.7813 87.9095 56.384C86.5015 58.944 84.4962 60.9493 81.8935 62.4C79.3335 63.808 76.3682 64.512 72.9975 64.512H66.2135ZM72.9975 56.704C75.4722 56.704 77.4562 55.808 78.9495 54.016C80.4855 52.224 81.2535 49.8773 81.2535 46.976V36.224C81.2535 33.3227 80.4855 30.976 78.9495 29.184C77.4562 27.392 75.4722 26.496 72.9975 26.496H66.2135C63.7388 26.496 61.7335 27.392 60.1975 29.184C58.7042 30.976 57.9575 33.3227 57.9575 36.224V46.976C57.9575 49.8773 58.7042 52.224 60.1975 54.016C61.7335 55.808 63.7388 56.704 66.2135 56.704H72.9975ZM57.8295 3.264H67.4295L73.7015 14.784H65.3815L57.8295 3.264ZM121.521 53.568H104.753L100.785 64H91.5685L109.105 19.2H113.073C115.846 19.2 117.723 20.48 118.705 23.04L134.641 64H125.425L121.521 53.568ZM107.121 46.144H119.153L113.201 30.016H113.137L107.121 46.144Z" fill="#EA222D"></path>
<path d="M14.976 142.88H0.768V135.2H38.016V142.88H23.808V180H14.976V142.88ZM42.7805 135.2H51.6125V153.696H72.4765V135.2H81.3085V180H72.4765V161.376H51.6125V180H42.7805V135.2ZM105.026 180.512C101.655 180.512 98.6687 179.808 96.066 178.4C93.506 176.949 91.5007 174.944 90.05 172.384C88.642 169.781 87.938 166.773 87.938 163.36V151.84C87.938 148.427 88.642 145.44 90.05 142.88C91.5007 140.277 93.506 138.272 96.066 136.864C98.6687 135.413 101.655 134.688 105.026 134.688H111.81C115.181 134.688 118.146 135.413 120.706 136.864C123.309 138.272 125.314 140.277 126.722 142.88C128.173 145.44 128.898 148.427 128.898 151.84V163.36C128.898 166.773 128.173 169.781 126.722 172.384C125.314 174.944 123.309 176.949 120.706 178.4C118.146 179.808 115.181 180.512 111.81 180.512H105.026ZM111.81 172.704C114.285 172.704 116.269 171.808 117.762 170.016C119.298 168.224 120.066 165.877 120.066 162.976V152.224C120.066 149.323 119.298 146.976 117.762 145.184C116.269 143.392 114.285 142.496 111.81 142.496H105.026C102.551 142.496 100.546 143.392 99.01 145.184C97.5167 146.976 96.77 149.323 96.77 152.224V162.976C96.77 165.877 97.5167 168.224 99.01 170.016C100.546 171.808 102.551 172.704 105.026 172.704H111.81ZM108.418 194.528C106.839 194.528 105.559 194.037 104.578 193.056C103.597 192.117 103.106 190.859 103.106 189.28C103.106 187.701 103.575 186.421 104.514 185.44C105.495 184.459 106.797 183.968 108.418 183.968C110.039 183.968 111.319 184.459 112.258 185.44C113.239 186.421 113.73 187.701 113.73 189.28C113.73 190.859 113.239 192.117 112.258 193.056C111.277 194.037 109.997 194.528 108.418 194.528Z" fill="#338DCC"></path>
</svg>